<?xml version="1.0" encoding="UTF-8" standalone="no"?>
<!-- Created with Inkscape (http://www.inkscape.org/) -->

<svg
   xmlns:dc="http://purl.org/dc/elements/1.1/"
   xmlns:cc="http://creativecommons.org/ns#"
   xmlns:rdf="http://www.w3.org/1999/02/22-rdf-syntax-ns#"
   xmlns:svg="http://www.w3.org/2000/svg"
   xmlns="http://www.w3.org/2000/svg"
   xmlns:sodipodi="http://sodipodi.sourceforge.net/DTD/sodipodi-0.dtd"
   xmlns:inkscape="http://www.inkscape.org/namespaces/inkscape"
   width="300mm"
   height="300mm"
   viewBox="0 0 300 300"
   version="1.1"
   id="svg3766"
   inkscape:version="0.92.4 (5da689c313, 2019-01-14)"
   sodipodi:docname="logo.svg">
  <defs
     id="defs3760">
    <inkscape:perspective
       sodipodi:type="inkscape:persp3d"
       inkscape:vp_x="0 : 148.49999 : 1"
       inkscape:vp_y="0 : 999.99997 : 0"
       inkscape:vp_z="210 : 148.49999 : 1"
       inkscape:persp3d-origin="105.00001 : 98.999997 : 1"
       id="perspective6163" />
  </defs>
  <sodipodi:namedview
     id="base"
     pagecolor="#ffffff"
     bordercolor="#666666"
     borderopacity="1.0"
     inkscape:pageopacity="0.0"
     inkscape:pageshadow="2"
     inkscape:zoom="0.50272924"
     inkscape:cx="1308.564"
     inkscape:cy="611.1775"
     inkscape:document-units="mm"
     inkscape:current-layer="layer1"
     showgrid="false"
     inkscape:window-width="1680"
     inkscape:window-height="987"
     inkscape:window-x="-8"
     inkscape:window-y="-8"
     inkscape:window-maximized="1"
     units="mm"
     fit-margin-top="0"
     fit-margin-left="0"
     fit-margin-right="0"
     fit-margin-bottom="0" />
  <metadata
     id="metadata3763">
    <rdf:RDF>
      <cc:Work
         rdf:about="">
        <dc:format>image/svg+xml</dc:format>
        <dc:type
           rdf:resource="http://purl.org/dc/dcmitype/StillImage" />
        <dc:title></dc:title>
      </cc:Work>
    </rdf:RDF>
  </metadata>
  <g
     inkscape:label="Ebene 1"
     inkscape:groupmode="layer"
     id="layer1"
     transform="translate(0,3)">
    <rect
       style="fill:#000000;stroke-width:0.26458332"
       id="rect3768"
       width="300"
       height="300"
       x="0"
       y="-3" />
    <circle
       style="fill:#ffffff;stroke-width:0.25440702"
       id="path3770"
       cx="150"
       cy="147"
       r="125" />
    <circle
       style="fill:#000000;stroke-width:0.28121445"
       id="path3772"
       cx="150"
       cy="147"
       r="120" />
    <circle
       style="fill:#ffffff;stroke-width:0.22609849"
       id="path3776"
       cx="150"
       cy="147"
       r="94" />
    <circle
       style="fill:#000000;stroke-width:0.29623726"
       id="path3778"
       cx="150"
       cy="147"
       r="90" />
    <circle
       style="fill:#ffffff;stroke-width:0.27635035"
       id="path3780"
       cx="150"
       cy="147"
       r="70" />
    <circle
       style="fill:#000000;stroke-width:0.28015429"
       id="path3782"
       cx="150"
       cy="147"
       r="67.5" />
    <circle
       style="fill:#ffffff;stroke-width:0.2667504"
       id="path3867"
       cx="150"
       cy="147"
       r="55" />
    <path
       style="fill:#000000;stroke-width:0.3731347"
       id="path3875"
       sodipodi:type="arc"
       sodipodi:cx="-138.1599"
       sodipodi:cy="176.85097"
       sodipodi:rx="54.551575"
       sodipodi:ry="49.539566"
       sodipodi:start="0"
       sodipodi:end="6.1515787"
       d="m -83.608322,176.85097 a 54.551575,49.539566 0 0 1 -52.757058,49.51275 54.551575,49.539566 0 0 1 -56.22803,-46.25524 54.551575,49.539566 0 0 1 49.05774,-52.55595 54.551575,49.539566 0 0 1 59.455605,42.79751"
       sodipodi:open="true"
       transform="matrix(0.25623486,-0.96661455,0.99889049,0.04709343,0,0)" />
    <flowRoot
       xml:space="preserve"
       id="flowRoot3877"
       style="font-style:normal;font-weight:normal;font-size:40px;line-height:1.25;font-family:sans-serif;letter-spacing:0px;word-spacing:0px;fill:#000000;fill-opacity:1;stroke:none"><flowRegion
         id="flowRegion3879"><rect
           id="rect3881"
           width="75.80645"
           height="116.12904"
           x="-574.19354"
           y="277.3584" /></flowRegion><flowPara
         id="flowPara3883" /></flowRoot>    <flowRoot
       xml:space="preserve"
       id="flowRoot3893"
       style="font-style:normal;font-weight:normal;font-size:40px;line-height:1.25;font-family:sans-serif;letter-spacing:0px;word-spacing:0px;fill:#000000;fill-opacity:1;stroke:none"><flowRegion
         id="flowRegion3895"><rect
           id="rect3897"
           width="66.129036"
           height="198.3871"
           x="-566.12903"
           y="209.61646" /></flowRegion><flowPara
         id="flowPara3899" /></flowRoot>    <path
       style="fill:#ffffff;stroke:#000000;stroke-width:0.28238708px;stroke-linecap:butt;stroke-linejoin:miter;stroke-opacity:1"
       d="m 115,46.858806 h 70"
       id="path4186"
       inkscape:connector-curvature="0" />
    <path
       style="fill:none;stroke:#000000;stroke-width:0.21885012px;stroke-linecap:butt;stroke-linejoin:miter;stroke-opacity:1"
       d="M 170,91.890575 H 130 L 115,46.858806"
       id="path4192"
       inkscape:connector-curvature="0" />
    <path
       style="fill:none;stroke:#000000;stroke-width:0.26458332px;stroke-linecap:butt;stroke-linejoin:miter;stroke-opacity:1"
       d="M 170,91.890574 185,46.858806"
       id="path4194"
       inkscape:connector-curvature="0" />
    <path
       style="opacity:0;fill:#000000;stroke-width:1.61290324"
       d="m 453.13803,228.40678 c -0.89146,-2.43951 -1.91294,-5.27373 -2.26996,-6.29825 -0.40651,-1.16653 6.09207,-3.71739 17.38656,-6.82469 38.67982,-10.64145 61.84962,-13.75101 101.10021,-13.56842 37.49543,0.17443 57.78313,3.037 96.23606,13.57878 l 18.01025,4.93747 -1.69812,5.09562 c -0.93397,2.80259 -2.23626,5.69651 -2.89397,6.43094 -0.65769,0.73442 -6.18364,-0.20848 -12.27985,-2.09532 -62.23579,-19.26267 -137.87401,-19.31995 -198.98727,-0.15071 -13.18464,4.13559 -12.67461,4.1742 -14.60391,-1.10542 z"
       id="path4196"
       inkscape:connector-curvature="0"
       transform="scale(0.26458333)" />
    <path
       style="opacity:0;fill:#000000;stroke-width:1.61290324"
       d="m 453.13803,228.40678 c -0.89146,-2.43951 -1.91294,-5.27373 -2.26996,-6.29825 -0.40651,-1.16653 6.09207,-3.71739 17.38656,-6.82469 38.67982,-10.64145 61.84962,-13.75101 101.10021,-13.56842 37.49543,0.17443 57.78313,3.037 96.23606,13.57878 l 18.01025,4.93747 -1.69812,5.09562 c -0.93397,2.80259 -2.23626,5.69651 -2.89397,6.43094 -0.65769,0.73442 -6.18364,-0.20848 -12.27985,-2.09532 -62.23579,-19.26267 -137.87401,-19.31995 -198.98727,-0.15071 -13.18464,4.13559 -12.67461,4.1742 -14.60391,-1.10542 z"
       id="path4198"
       inkscape:connector-curvature="0"
       transform="scale(0.26458333)" />
    <path
       style="opacity:0;fill:#000000;stroke-width:1.61290324"
       d="m 453.13803,228.40678 c -0.89146,-2.43951 -1.91294,-5.27373 -2.26996,-6.29825 -0.40651,-1.16653 6.09207,-3.71739 17.38656,-6.82469 38.67982,-10.64145 61.84962,-13.75101 101.10021,-13.56842 37.49543,0.17443 57.78313,3.037 96.23606,13.57878 l 18.01025,4.93747 -1.69812,5.09562 c -0.93397,2.80259 -2.23626,5.69651 -2.89397,6.43094 -0.65769,0.73442 -6.18364,-0.20848 -12.27985,-2.09532 -62.23579,-19.26267 -137.87401,-19.31995 -198.98727,-0.15071 -13.18464,4.13559 -12.67461,4.1742 -14.60391,-1.10542 z"
       id="path4200"
       inkscape:connector-curvature="0"
       transform="scale(0.26458333)" />
    <path
       style="opacity:0;fill:#000000;stroke-width:1.61290324"
       d="m 453.13803,228.40678 c -0.89146,-2.43951 -1.91294,-5.27373 -2.26996,-6.29825 -0.40651,-1.16653 6.09207,-3.71739 17.38656,-6.82469 38.67982,-10.64145 61.84962,-13.75101 101.10021,-13.56842 37.49543,0.17443 57.78313,3.037 96.23606,13.57878 l 18.01025,4.93747 -1.69812,5.09562 c -0.93397,2.80259 -2.23626,5.69651 -2.89397,6.43094 -0.65769,0.73442 -6.18364,-0.20848 -12.27985,-2.09532 -62.23579,-19.26267 -137.87401,-19.31995 -198.98727,-0.15071 -13.18464,4.13559 -12.67461,4.1742 -14.60391,-1.10542 z"
       id="path4202"
       inkscape:connector-curvature="0"
       transform="scale(0.26458333)" />
    <path
       style="opacity:0;fill:#000000;stroke-width:1.61290324"
       d="M 546.77419,893.95606 C 427.10416,887.61407 318.73251,816.30917 263.91201,707.84227 216.7074,614.44402 215.6516,503.55922 261.07089,409.45517 277.87602,374.6367 295.22323,349.4641 320.96774,322.53866 377.30206,263.62022 448.122,228.15577 528.98995,218.36753 c 17.57202,-2.12692 58.31905,-2.12692 75.89107,0 80.95225,9.79844 151.62916,45.19126 208.02221,104.17113 66.9754,70.04765 101.22332,168.32077 91.92025,263.76175 -7.75345,79.54336 -42.18883,152.93947 -97.88679,208.63742 -69.56161,69.56161 -160.79293,104.28439 -260.1625,99.01823 z m 38.50144,-74.05708 C 632.88337,816.26727 676.22302,801.60251 713.9826,776.3486 810.05102,712.09728 853.74671,592.52235 821.64181,481.73506 797.68039,399.0492 733.17265,331.43696 652.64277,304.60279 c -32.5035,-10.83083 -46.03843,-12.83509 -86.51374,-12.81097 -34.12926,0.0203 -37.44135,0.29262 -55.61926,4.57255 -56.1988,13.23183 -102.59453,40.06289 -139.77431,80.83273 -72.73363,79.75675 -89.51748,195.71279 -42.48912,293.54839 40.8709,85.02592 123.77101,141.883 217.36466,149.07965 9.06718,0.69719 16.84868,1.36917 17.29223,1.4933 0.44354,0.1242 10.51112,-0.51464 22.3724,-1.41946 z"
       id="path4204"
       inkscape:connector-curvature="0"
       transform="scale(0.26458333)" />
    <path
       style="opacity:0;fill:#000000;stroke-width:1.61290324"
       d="M 546.77419,893.95606 C 427.10416,887.61407 318.73251,816.30917 263.91201,707.84227 216.7074,614.44402 215.6516,503.55922 261.07089,409.45517 277.87602,374.6367 295.22323,349.4641 320.96774,322.53866 377.30206,263.62022 448.122,228.15577 528.98995,218.36753 c 17.57202,-2.12692 58.31905,-2.12692 75.89107,0 80.95225,9.79844 151.62916,45.19126 208.02221,104.17113 66.9754,70.04765 101.22332,168.32077 91.92025,263.76175 -7.75345,79.54336 -42.18883,152.93947 -97.88679,208.63742 -69.56161,69.56161 -160.79293,104.28439 -260.1625,99.01823 z m 38.50144,-74.05708 C 632.88337,816.26727 676.22302,801.60251 713.9826,776.3486 810.05102,712.09728 853.74671,592.52235 821.64181,481.73506 797.68039,399.0492 733.17265,331.43696 652.64277,304.60279 c -32.5035,-10.83083 -46.03843,-12.83509 -86.51374,-12.81097 -34.12926,0.0203 -37.44135,0.29262 -55.61926,4.57255 -56.1988,13.23183 -102.59453,40.06289 -139.77431,80.83273 -72.73363,79.75675 -89.51748,195.71279 -42.48912,293.54839 40.8709,85.02592 123.77101,141.883 217.36466,149.07965 9.06718,0.69719 16.84868,1.36917 17.29223,1.4933 0.44354,0.1242 10.51112,-0.51464 22.3724,-1.41946 z"
       id="path4206"
       inkscape:connector-curvature="0"
       transform="scale(0.26458333)" />
    <path
       style="opacity:0;fill:#000000;stroke-width:1.61290324"
       d="m 480.21612,310.40805 c -1.0689,-4.08746 -1.41346,-3.8697 12.52582,-7.91608 27.74857,-8.05502 36.97129,-9.1704 75,-9.07043 37.92258,0.0997 49.81183,1.65126 76.6129,9.99817 7.9269,2.46875 9.57674,3.57896 9.12085,6.1376 -0.30611,1.71801 -0.81866,3.39428 -1.139,3.72503 -0.32032,0.33074 -7.6129,-1.39319 -16.20572,-3.83097 -22.31825,-6.33168 -41.69989,-8.91411 -67.67328,-9.01686 -26.10952,-0.10329 -43.12693,1.90368 -65.03794,7.6703 -23.60299,6.21193 -22.21745,6.07439 -23.20363,2.30324 z"
       id="path4208"
       inkscape:connector-curvature="0"
       transform="scale(0.26458333)" />
    <path
       style="opacity:0;fill:#000000;stroke-width:1.61290324"
       d="M 546.77419,893.95606 C 427.10416,887.61407 318.73251,816.30917 263.91201,707.84227 210.96542,603.08304 216.61895,476.72933 278.72813,376.70886 c 33.06177,-53.24258 82.97643,-98.25538 139.82026,-126.08923 17.80601,-8.7188 59.66014,-24.05664 66.46385,-24.35631 1.59053,-0.0701 2.01,-0.48464 0.93252,-0.92164 -1.07716,-0.43687 -8.24713,1.12385 -15.93328,3.46826 -7.68613,2.34442 -14.50817,3.66641 -15.16009,2.93777 -0.65194,-0.72864 -1.94949,-3.61783 -2.88345,-6.42042 l -1.69812,-5.09562 18.01024,-4.95487 c 38.65267,-10.63388 61.83231,-13.74393 101.07478,-13.56138 37.49543,0.17443 57.78313,3.037 96.23606,13.57878 l 18.01025,4.93747 -1.69812,5.09562 c -0.93397,2.80259 -2.23151,5.69178 -2.88345,6.42042 -0.65192,0.72864 -7.30403,-0.54152 -14.78245,-2.82258 -7.47844,-2.28106 -14.6484,-4.11415 -15.93326,-4.07353 -1.28487,0.0406 6.01065,2.62844 16.21226,5.75071 57.692,17.65701 105.9586,47.5616 148.3871,91.93635 66.9754,70.04765 101.22332,168.32077 91.92025,263.76175 -7.75345,79.54336 -42.18883,152.93947 -97.88679,208.63742 -69.56161,69.56161 -160.79293,104.28439 -260.1625,99.01823 z m 38.50144,-74.05708 C 632.88337,816.26727 676.22302,801.60251 713.9826,776.3486 810.05102,712.09728 853.74671,592.52235 821.64181,481.73506 797.68039,399.0492 733.17265,331.43696 652.64277,304.60279 c -32.5035,-10.83083 -46.03843,-12.83509 -86.51374,-12.81097 -34.12926,0.0203 -37.44135,0.29262 -55.61926,4.57255 -56.1988,13.23183 -102.59453,40.06289 -139.77431,80.83273 -72.73363,79.75675 -89.51748,195.71279 -42.48912,293.54839 40.8709,85.02592 123.77101,141.883 217.36466,149.07965 9.06718,0.69719 16.84868,1.36917 17.29223,1.4933 0.44354,0.1242 10.51112,-0.51464 22.3724,-1.41946 z M 504.83871,221.39797 c 2.68348,-1.55689 -6.23177,-0.17615 -12.90323,1.99837 -2.64432,0.86191 -1.53396,0.98575 3.22581,0.35979 3.99194,-0.52499 8.34677,-1.58616 9.67742,-2.35816 z m 132.25806,0.80637 c -4.87903,-1.21918 -12.8629,-2.58602 -17.74193,-3.03741 -6.94318,-0.64235 -6.0669,-0.29107 4.03226,1.61649 7.09677,1.34046 13.62903,2.73025 14.51613,3.08843 0.88709,0.35818 3.06451,0.62827 4.83871,0.60021 1.77419,-0.0281 -0.76613,-1.04853 -5.64517,-2.26772 z m -114.65053,-3.29367 c 1.51294,-1.31593 -10.52948,-0.42125 -12.685,0.94243 -1.51093,0.95589 0.19744,1.15355 4.83871,0.55984 3.94584,-0.50475 7.47666,-1.18077 7.84629,-1.50227 z m 11.82795,-1.72281 c -1.99596,-0.38444 -5.26209,-0.38444 -7.25806,0 -1.99597,0.38444 -0.3629,0.69898 3.62903,0.69898 3.99194,0 5.625,-0.31454 3.62903,-0.69898 z m 72.58065,0 c -1.99597,-0.38444 -5.2621,-0.38444 -7.25807,0 -1.99596,0.38444 -0.3629,0.69898 3.62904,0.69898 3.99193,0 5.625,-0.31454 3.62903,-0.69898 z m -25.88803,-1.67743 c -8.25052,-0.29332 -21.31504,-0.29194 -29.03226,0.003 -7.71723,0.29501 -0.96681,0.535 15.00093,0.53331 15.96775,-0.002 22.28184,-0.24307 14.03133,-0.53639 z"
       id="path6101"
       inkscape:connector-curvature="0"
       transform="scale(0.26458333)" />
    <path
       style="opacity:0;fill:#000000;stroke-width:1.61290324"
       d="M 546.77419,893.95606 C 427.10416,887.61407 318.73251,816.30917 263.91201,707.84227 210.96542,603.08304 216.61895,476.72933 278.72813,376.70886 c 33.06177,-53.24258 82.97643,-98.25538 139.82026,-126.08923 17.80601,-8.7188 59.66014,-24.05664 66.46385,-24.35631 1.59053,-0.0701 2.01,-0.48464 0.93252,-0.92164 -1.07716,-0.43687 -8.24713,1.12385 -15.93328,3.46826 -7.68613,2.34442 -14.50817,3.66641 -15.16009,2.93777 -0.65194,-0.72864 -1.94949,-3.61783 -2.88345,-6.42042 l -1.69812,-5.09562 18.01024,-4.95487 c 38.65267,-10.63388 61.83231,-13.74393 101.07478,-13.56138 37.49543,0.17443 57.78313,3.037 96.23606,13.57878 l 18.01025,4.93747 -1.69812,5.09562 c -0.93397,2.80259 -2.23151,5.69178 -2.88345,6.42042 -0.65192,0.72864 -7.30403,-0.54152 -14.78245,-2.82258 -7.47844,-2.28106 -14.6484,-4.11415 -15.93326,-4.07353 -1.28487,0.0406 6.01065,2.62844 16.21226,5.75071 57.692,17.65701 105.9586,47.5616 148.3871,91.93635 66.9754,70.04765 101.22332,168.32077 91.92025,263.76175 -7.75345,79.54336 -42.18883,152.93947 -97.88679,208.63742 -69.56161,69.56161 -160.79293,104.28439 -260.1625,99.01823 z m 38.50144,-74.05708 C 632.88337,816.26727 676.22302,801.60251 713.9826,776.3486 810.05102,712.09728 853.74671,592.52235 821.64181,481.73506 797.68039,399.0492 733.17265,331.43696 652.64277,304.60279 c -32.5035,-10.83083 -46.03843,-12.83509 -86.51374,-12.81097 -34.12926,0.0203 -37.44135,0.29262 -55.61926,4.57255 -56.1988,13.23183 -102.59453,40.06289 -139.77431,80.83273 -72.73363,79.75675 -89.51748,195.71279 -42.48912,293.54839 40.8709,85.02592 123.77101,141.883 217.36466,149.07965 9.06718,0.69719 16.84868,1.36917 17.29223,1.4933 0.44354,0.1242 10.51112,-0.51464 22.3724,-1.41946 z M 512.09677,220.57102 c 10.61912,-2.09095 10.76296,-2.17437 2.41936,-1.40324 -4.87903,0.45092 -12.8629,1.87375 -17.74194,3.16184 -10.21888,2.69784 -3.24487,1.89742 15.32258,-1.7586 z m 125,1.63332 c -4.87903,-1.21918 -12.8629,-2.58602 -17.74193,-3.03741 -6.94318,-0.64235 -6.0669,-0.29107 4.03226,1.61649 7.09677,1.34046 13.62903,2.73025 14.51613,3.08843 0.88709,0.35818 3.06451,0.62827 4.83871,0.60021 1.77419,-0.0281 -0.76613,-1.04853 -5.64517,-2.26772 z m -102.82258,-5.01648 c -1.99596,-0.38444 -5.26209,-0.38444 -7.25806,0 -1.99597,0.38444 -0.3629,0.69898 3.62903,0.69898 3.99194,0 5.625,-0.31454 3.62903,-0.69898 z m 72.58065,0 c -1.99597,-0.38444 -5.2621,-0.38444 -7.25807,0 -1.99596,0.38444 -0.3629,0.69898 3.62904,0.69898 3.99193,0 5.625,-0.31454 3.62903,-0.69898 z"
       id="path6103"
       inkscape:connector-curvature="0"
       transform="scale(0.26458333)" />
    <path
       style="opacity:0;fill:#000000;stroke-width:1.61290324"
       d="m 453.13803,228.40678 c -0.89146,-2.43951 -1.91294,-5.27373 -2.26996,-6.29825 -0.40651,-1.16653 6.09207,-3.71739 17.38656,-6.82469 38.67982,-10.64145 61.84962,-13.75101 101.10021,-13.56842 37.49543,0.17443 57.78313,3.037 96.23606,13.57878 l 18.01025,4.93747 -1.69812,5.09562 c -0.93397,2.80259 -2.23626,5.69651 -2.89397,6.43094 -0.65769,0.73442 -6.18364,-0.20848 -12.27985,-2.09532 -62.23579,-19.26267 -137.87401,-19.31995 -198.98727,-0.15071 -13.18464,4.13559 -12.67461,4.1742 -14.60391,-1.10542 z"
       id="path6105"
       inkscape:connector-curvature="0"
       transform="scale(0.26458333)" />
    <path
       style="opacity:1;fill:#000000;stroke-width:0.57024741"
       d="m 452.05246,227.32749 c -1.1948,-3.63023 -2.0293,-6.74348 -1.85445,-6.91833 0.64795,-0.64795 20.07043,-6.45622 29.86478,-8.93102 32.15711,-8.12536 57.97378,-11.01351 93.51274,-10.46142 29.65854,0.46074 51.09535,3.21314 79.13245,10.16031 13.28429,3.29164 31.07849,8.73897 31.07849,9.51405 0,1.17726 -4.33184,13.23683 -4.75472,13.23683 -0.2832,0 -4.14072,-1.17252 -8.57224,-2.60559 -38.02772,-12.29746 -81.99514,-17.95281 -121.53655,-15.63274 -26.84244,1.57496 -51.73227,5.77231 -76.12803,12.83802 -5.80227,1.6805 -12.06527,3.58305 -13.91778,4.22788 -1.8525,0.64484 -3.65712,1.17243 -4.01026,1.17243 -0.35314,0 -1.61964,-2.97019 -2.81443,-6.60042 z"
       id="path6127"
       inkscape:connector-curvature="0"
       transform="scale(0.26458333)" />
    <path
       style="opacity:1;fill:#000000;stroke-width:0.57024741"
       d="m 481.07449,314.2494 c -2.03969,-5.54906 -2.53097,-7.57614 -1.92666,-7.94962 1.11147,-0.68693 17.46535,-5.51755 24.72558,-7.30347 13.59697,-3.34465 28.19515,-5.72833 42.08681,-6.87218 9.22951,-0.75997 32.76341,-0.7685 41.73956,-0.0151 20.64396,1.73264 40.92822,5.76383 60.52186,12.0278 6.65926,2.12892 7.08491,2.35249 6.71273,3.52585 -1.65471,5.21673 -2.44894,6.94358 -3.14988,6.8486 -0.43299,-0.0587 -4.1232,-1.16636 -8.20047,-2.46152 -44.14206,-14.02195 -92.55371,-15.53592 -137.99987,-4.31564 -6.46439,1.59601 -19.57478,5.50249 -23.42446,6.97975 -0.44079,0.16915 -0.92913,-0.0399 -1.0852,-0.46443 z"
       id="path6129"
       inkscape:connector-curvature="0"
       transform="scale(0.26458333)" />
    <path
       style="opacity:1;fill:#000000;stroke-width:0.57024741"
       d="m 453.69714,230.93411 c -1.21022,-3.01226 -3.12463,-9.05319 -3.13451,-9.89093 -0.008,-0.69664 6.82841,-2.97816 19.66618,-6.56304 4.70454,-1.31372 8.63925,-2.60763 8.7438,-2.87535 0.10454,-0.26773 0.91102,-0.48678 1.79217,-0.48678 0.88115,0 4.98912,-0.76894 9.12882,-1.70876 17.18402,-3.9012 33.43066,-6.27935 50.91809,-7.45329 11.6562,-0.78249 50.72283,-0.40824 60.2889,0.57755 26.74264,2.75586 49.76521,7.56029 75.76219,15.81034 l 6.47713,2.05549 -0.29892,1.77462 c -0.47148,2.79905 -3.85305,11.1837 -4.51044,11.1837 -0.32676,0 -4.74097,-1.27664 -9.80936,-2.83699 -45.7883,-14.0963 -92.5931,-18.58488 -139.47177,-13.37535 -21.4209,2.38045 -41.73458,6.64746 -64.78931,13.60936 -4.74096,1.43164 -8.88303,2.60298 -9.2046,2.60298 -0.32157,0 -1.02283,-1.0906 -1.55837,-2.42355 z"
       id="path6131"
       inkscape:connector-curvature="0"
       transform="scale(0.26458333)" />
    <path
       style="opacity:1;fill:#000000;stroke-width:0.57024741"
       d="m 453.67897,230.93411 c -1.18281,-2.89009 -3.1132,-9.01104 -3.11934,-9.89093 -0.002,-0.34343 2.49761,-1.41867 5.55556,-2.38943 8.49605,-2.6971 23.53315,-7.05816 26.08882,-7.56628 5.59424,-1.11227 15.42876,-3.50871 15.95663,-3.88826 0.3193,-0.22958 1.47868,-0.48082 2.57641,-0.55831 1.09773,-0.0775 6.10165,-0.76248 11.11982,-1.52219 17.662,-2.67388 24.89721,-3.21564 47.18153,-3.53286 23.28884,-0.33153 37.17695,0.24045 52.89689,2.17856 20.14706,2.48392 42.94296,7.60273 64.92749,14.57944 l 6.47713,2.05549 -0.29023,1.78843 c -0.4908,3.02444 -3.86557,11.16989 -4.62784,11.16989 -0.39586,0 -3.52069,-0.88329 -6.94408,-1.96286 -23.03646,-7.26459 -45.68273,-11.97981 -70.6325,-14.70648 -15.28342,-1.67028 -50.56523,-1.81301 -65.32312,-0.26426 -25.66004,2.69285 -46.61831,6.92964 -70.94726,14.34223 -4.67784,1.42525 -8.81991,2.59137 -9.2046,2.59137 -0.38469,0 -1.14578,-1.0906 -1.69131,-2.42355 z"
       id="path6133"
       inkscape:connector-curvature="0"
       transform="scale(0.26458333)" />
    <path
       style="opacity:1;fill:#000000;stroke-width:0.57024741"
       d="m 453.54124,230.64899 c -1.1551,-2.72967 -2.98596,-8.68393 -2.98596,-9.71084 0,-0.98396 24.41313,-8.25188 38.77682,-11.54408 8.34977,-1.91378 24.41884,-4.77308 30.46079,-5.42011 2.07345,-0.22205 3.89793,-0.61087 4.05441,-0.86405 0.15647,-0.25318 2.14164,-0.47548 4.41149,-0.494 2.26984,-0.0185 7.33463,-0.2885 11.25508,-0.59995 9.20633,-0.73138 42.85204,-0.73812 53.88838,-0.0108 27.65276,1.82238 55.19568,7.2353 84.60597,16.62734 l 5.34159,1.70581 -0.29518,1.81895 c -0.50788,3.1297 -3.8734,11.2004 -4.67061,11.2004 -0.41667,0 -4.05473,-1.03485 -8.08458,-2.29967 -36.18724,-11.35781 -73.54762,-16.65809 -111.11203,-15.76334 -33.85141,0.80631 -64.54362,5.99753 -98.53968,16.66679 -2.44687,0.76792 -4.78892,1.39622 -5.20456,1.39622 -0.41565,0 -1.27151,-1.2189 -1.90193,-2.70867 z"
       id="path6135"
       inkscape:connector-curvature="0"
       transform="scale(0.26458333)" />
    <path
       style="opacity:1;fill:#000000;stroke-width:0.57024741"
       d="m 542.25819,201.03426 c 0.41165,-0.16473 0.90348,-0.14447 1.09297,0.045 0.18949,0.18949 -0.14731,0.32427 -0.74845,0.29951 -0.6643,-0.0274 -0.79943,-0.16249 -0.34452,-0.34453 z"
       id="path6137"
       inkscape:connector-curvature="0"
       transform="scale(0.26458333)" />
    <path
       style="opacity:1;fill:#000000;stroke-width:0.57024741"
       d="m 545.26387,201.214 c 0.13068,-0.11539 2.5471,-0.34105 5.36983,-0.50146 2.85365,-0.16217 4.62587,-0.0868 3.99173,0.16972 -1.103,0.44622 -9.84191,0.75589 -9.36156,0.33174 z"
       id="path6139"
       inkscape:connector-curvature="0"
       transform="scale(0.26458333)" />
    <path
       style="opacity:1;fill:#000000;stroke-width:0.05040323"
       d="m 679.43201,234.55908 c -0.0962,-0.0962 -7.15491,-2.44538 -10.62765,-3.5369 -17.59314,-5.52974 -36.50013,-9.79766 -54.43548,-12.28785 -1.62023,-0.22496 -1.61291,-0.22366 -1.61291,-0.28745 0,-0.0349 0.12594,-0.0442 0.36543,-0.0271 l 0.36542,0.0262 -0.36542,-0.0532 -0.36543,-0.0532 v -7.37404 -7.37405 l 0.18902,-0.0198 0.18901,-0.0198 -0.18901,-0.008 c -0.1616,-0.007 -0.18902,-0.0254 -0.18902,-0.12527 v -0.11679 l 0.69305,0.0928 c 23.04399,3.08594 44.82788,8.13329 66.49445,15.40684 3.63064,1.21882 4.3435,1.47254 4.31971,1.53746 -0.0114,0.031 -1.08427,3.24877 -2.38426,7.15061 -1.29998,3.90184 -2.3769,7.09425 -2.39314,7.09425 -0.0163,0 -0.0404,-0.0109 -0.0538,-0.0242 z m -0.21951,-0.83242 c 0.71485,-1.13241 4.09916,-10.56752 4.53463,-12.64212 0.0912,-0.43423 0.0692,-0.49588 -0.23306,-0.65571 -0.14803,-0.0783 -0.18112,-0.0862 -0.10231,-0.0244 0.0641,0.0502 0.17282,0.13658 0.2417,0.19203 l 0.12523,0.1008 -0.0796,0.37803 c -0.40099,1.90343 -3.23047,9.8971 -4.31306,12.18498 -0.25687,0.54284 -0.30713,0.61744 -0.41601,0.61744 -0.27661,0 -2.72438,-0.73994 -7.92268,-2.39493 -3.95721,-1.25987 -5.87419,-1.85352 -5.90046,-1.82725 -0.011,0.011 0.65438,0.22796 1.47856,0.48221 0.82419,0.25424 2.73466,0.85725 4.24549,1.34003 4.85792,1.55231 7.79946,2.44398 8.07649,2.44823 0.10723,0.002 0.1663,-0.0428 0.26512,-0.1993 z m -14.14218,-4.10367 c -0.038,-0.0377 -2.27354,-0.69205 -2.29408,-0.6715 -0.0214,0.0214 2.12272,0.6778 2.24368,0.68692 0.0393,0.003 0.062,-0.004 0.0504,-0.0154 z m -2.37224,-0.70913 c -0.0396,-0.0396 -4.44245,-1.28978 -4.48837,-1.27447 -0.0426,0.0142 4.30946,1.28063 4.44126,1.29239 0.0393,0.004 0.0605,-0.005 0.0471,-0.0179 z m -4.78082,-1.36787 c -0.32026,-0.10126 -3.92488,-1.06723 -4.10786,-1.10084 -0.35142,-0.0645 0.17092,0.0859 2.01613,0.58082 1.05343,0.28252 1.97203,0.53153 2.04133,0.55335 0.0693,0.0218 0.16003,0.0394 0.20161,0.039 0.0416,-3.5e-4 -0.0265,-0.0329 -0.15121,-0.0724 z m -4.29337,-1.1539 c -0.0835,-0.0835 -9.86902,-2.46936 -9.97846,-2.43288 -0.0257,0.009 0.8217,0.2185 1.88319,0.4665 1.06149,0.248 3.29086,0.79491 4.95417,1.21536 2.95597,0.74721 3.19427,0.80419 3.1411,0.75102 z m -10.29836,-2.523 c -0.13861,-0.0386 -0.28604,-0.0683 -0.32762,-0.0661 -0.10406,0.005 0.35355,0.13529 0.47883,0.13584 0.0554,2.5e-4 -0.0126,-0.0311 -0.15121,-0.0697 z m -0.52923,-0.12247 c -0.0693,-0.0222 -0.17138,-0.0404 -0.22682,-0.0404 -0.0798,0 -0.0746,0.008 0.0252,0.0404 0.0693,0.0222 0.17137,0.0403 0.22682,0.0403 0.0798,0 0.0746,-0.008 -0.0252,-0.0403 z m -0.45363,-0.10081 c -0.0693,-0.0222 -0.17137,-0.0404 -0.22682,-0.0404 -0.0798,0 -0.0746,0.008 0.0252,0.0404 0.0693,0.0222 0.17137,0.0404 0.22682,0.0404 0.0798,0 0.0746,-0.008 -0.0252,-0.0404 z m -0.80646,-0.179 c -0.42663,-0.10475 -1.00133,-0.20734 -0.80645,-0.14396 0.19011,0.0618 1.09427,0.26143 1.18448,0.26147 0.0554,3e-5 -0.11467,-0.0528 -0.37803,-0.11751 z m -1.26008,-0.27661 c -0.37788,-0.0923 -0.82597,-0.16868 -0.73084,-0.12462 0.0922,0.0427 0.90565,0.21831 1.00806,0.21762 0.0554,-3.6e-4 -0.0693,-0.0422 -0.27722,-0.093 z m -0.81065,-0.16882 c -0.0376,-0.0351 -1.31181,-0.2941 -1.33461,-0.2713 -0.0122,0.0122 0.24437,0.0802 0.57013,0.1511 0.57004,0.12412 0.80895,0.16168 0.76448,0.1202 z m -1.41129,-0.30272 c -0.0372,-0.0352 -0.86027,-0.1909 -0.88397,-0.1672 -0.0126,0.0126 0.14241,0.0573 0.34444,0.0994 0.37472,0.078 0.57715,0.10348 0.53953,0.0678 z m -0.95766,-0.20186 c -0.0362,-0.0347 -1.61656,-0.34163 -1.63972,-0.31847 -0.0121,0.0121 0.31315,0.0908 0.72276,0.17501 0.72017,0.14797 0.96094,0.18564 0.91696,0.14346 z m -1.74731,-0.36606 c -0.0346,-0.014 -0.0914,-0.014 -0.12601,0 -0.0346,0.014 -0.006,0.0254 0.063,0.0254 0.0693,0 0.0977,-0.0114 0.063,-0.0254 z m -0.25202,-0.0504 c -0.0347,-0.014 -0.0914,-0.014 -0.12601,0 -0.0346,0.014 -0.006,0.0254 0.063,0.0254 0.0693,0 0.0977,-0.0114 0.063,-0.0254 z m -0.25201,-0.0504 c -0.0347,-0.014 -0.0914,-0.014 -0.12601,0 -0.0347,0.014 -0.006,0.0254 0.063,0.0254 0.0693,0 0.0977,-0.0114 0.063,-0.0254 z m -0.25202,-0.0504 c -0.0346,-0.014 -0.0914,-0.014 -0.12601,0 -0.0347,0.014 -0.006,0.0254 0.063,0.0254 0.0693,0 0.0977,-0.0114 0.063,-0.0254 z m -0.25202,-0.0504 c -0.0346,-0.014 -0.0913,-0.014 -0.126,0 -0.0347,0.014 -0.006,0.0254 0.063,0.0254 0.0693,0 0.0977,-0.0114 0.063,-0.0254 z m -0.25201,-0.0504 c -0.0347,-0.014 -0.0914,-0.014 -0.12601,0 -0.0346,0.014 -0.006,0.0254 0.063,0.0254 0.0693,0 0.0977,-0.0114 0.063,-0.0254 z m -0.25202,-0.0504 c -0.0347,-0.014 -0.0914,-0.014 -0.12601,0 -0.0346,0.014 -0.006,0.0254 0.063,0.0254 0.0693,0 0.0976,-0.0114 0.063,-0.0254 z m -0.25201,-0.0504 c -0.0347,-0.014 -0.0914,-0.014 -0.12601,0 -0.0347,0.014 -0.006,0.0254 0.063,0.0254 0.0693,0 0.0977,-0.0114 0.063,-0.0254 z m -0.86946,-0.17092 c -0.37424,-0.0791 -0.72581,-0.14244 -0.78125,-0.14083 -0.13777,0.004 1.17784,0.28407 1.33569,0.28435 0.0693,10e-5 -0.1802,-0.0645 -0.55444,-0.14352 z m -0.94506,-0.1819 c -0.0346,-0.014 -0.0914,-0.014 -0.12601,0 -0.0347,0.014 -0.006,0.0254 0.063,0.0254 0.0693,0 0.0977,-0.0114 0.063,-0.0254 z m -0.49143,-0.0956 c -0.16633,-0.0375 -0.34778,-0.0667 -0.40323,-0.0648 -0.13618,0.005 0.42031,0.13191 0.57964,0.13253 0.0693,2.5e-4 -0.0101,-0.0302 -0.17641,-0.0677 z m -0.80645,-0.15121 c -0.16633,-0.0375 -0.34779,-0.0667 -0.40323,-0.0648 -0.13618,0.005 0.42031,0.13191 0.57964,0.13253 0.0693,2.5e-4 -0.0101,-0.0302 -0.17641,-0.0678 z m -0.80645,-0.15121 c -0.16634,-0.0375 -0.34779,-0.0667 -0.40323,-0.0648 -0.13619,0.005 0.42031,0.13191 0.57964,0.13253 0.0693,2.5e-4 -0.0101,-0.0302 -0.17641,-0.0678 z m -0.65525,-0.12304 c -0.0832,-0.0212 -0.20791,-0.0385 -0.27721,-0.0385 -0.1124,0 -0.10968,0.004 0.0252,0.0385 0.0832,0.0212 0.20791,0.0385 0.27721,0.0385 0.1124,0 0.10968,-0.004 -0.0252,-0.0385 z m -0.55443,-0.10081 c -0.0832,-0.0212 -0.20792,-0.0385 -0.27722,-0.0385 -0.1124,0 -0.10968,0.004 0.0252,0.0385 0.0832,0.0212 0.20792,0.0385 0.27722,0.0385 0.1124,0 0.10968,-0.004 -0.0252,-0.0385 z m -0.73085,-0.12966 c -0.18019,-0.037 -0.37298,-0.0654 -0.42843,-0.0631 -0.136,0.006 0.47049,0.13155 0.63004,0.1309 0.0693,-3.1e-4 -0.0214,-0.0308 -0.20161,-0.0678 z m -0.57964,-0.0992 c -0.1144,-0.0438 -1.54894,-0.27968 -1.59915,-0.26294 -0.0625,0.0208 1.33294,0.27771 1.52355,0.28044 0.0693,9.9e-4 0.10333,-0.007 0.0756,-0.0175 z m -1.6927,-0.29459 c -0.0365,-0.0337 -1.36231,-0.24377 -1.38643,-0.21965 -0.0127,0.0127 0.24402,0.069 0.5704,0.1252 0.58615,0.10094 0.85692,0.13228 0.81603,0.0944 z m 57.76597,-0.0281 c -0.13614,-0.0798 -1.32181,-0.55731 -1.37976,-0.55568 -0.063,0.002 1.32578,0.5916 1.40528,0.59685 0.0277,0.002 0.0162,-0.0167 -0.0255,-0.0412 z m -59.26031,-0.23751 c -0.0341,-0.0138 -0.10217,-0.0146 -0.15121,-0.002 -0.049,0.0128 -0.0211,0.0241 0.062,0.0251 0.0832,0.001 0.12329,-0.009 0.0892,-0.0232 z m -0.44199,-0.0706 c -0.25532,-0.0528 -0.46162,-0.0504 -0.25201,0.003 0.0832,0.0212 0.21925,0.0386 0.30241,0.0386 0.12714,1.5e-4 0.11911,-0.006 -0.0504,-0.0415 z m -1.20968,-0.20101 c -0.44354,-0.0785 -0.86315,-0.1415 -0.93246,-0.14012 -0.1705,0.003 1.39652,0.28226 1.58771,0.28254 0.0832,1e-4 -0.2117,-0.064 -0.65525,-0.14242 z m 59.3402,-0.12492 c -0.0463,-0.0463 -1.41779,-0.53106 -1.46139,-0.51653 -0.023,0.008 0.28152,0.13134 0.67676,0.27482 0.69666,0.25289 0.83995,0.29703 0.78463,0.24171 z m -60.9027,-0.12722 c -0.27721,-0.0507 -0.56073,-0.0909 -0.63004,-0.0894 -0.16949,0.004 0.79071,0.18067 0.98287,0.18112 0.0832,2.1e-4 -0.0756,-0.0411 -0.35283,-0.0918 z m -0.95766,-0.15168 c -0.11088,-0.0229 -0.25831,-0.04 -0.32762,-0.038 -0.17497,0.005 0.17276,0.0777 0.37803,0.0788 0.12604,7e-4 0.11766,-0.006 -0.0504,-0.0409 z m -0.65524,-0.10081 c -0.11089,-0.0229 -0.25832,-0.04 -0.32762,-0.038 -0.17497,0.005 0.17276,0.0777 0.37802,0.0788 0.12605,7e-4 0.11766,-0.006 -0.0504,-0.0409 z m -0.65524,-0.10081 c -0.11089,-0.0229 -0.25832,-0.04 -0.32762,-0.038 -0.17497,0.005 0.17276,0.0777 0.37802,0.0788 0.12605,7e-4 0.11766,-0.006 -0.0504,-0.0409 z m -0.83165,-0.1263 c -0.20792,-0.0363 -0.43473,-0.0644 -0.50404,-0.0624 -0.16835,0.005 0.53757,0.12939 0.73085,0.12891 0.0832,-2e-4 -0.0189,-0.0301 -0.22681,-0.0665 z m 62.29838,0.0101 c 0,-0.0341 -0.91331,-0.34526 -0.93873,-0.31984 -0.0139,0.0139 0.17465,0.0938 0.41895,0.17771 0.45523,0.15627 0.51978,0.17393 0.51978,0.14213 z m -63.01663,-0.11724 c -0.0485,-0.0127 -0.1279,-0.0127 -0.17641,0 -0.0485,0.0127 -0.009,0.023 0.0882,0.023 0.097,0 0.13672,-0.0104 0.0882,-0.023 z m -0.34022,-0.047 c -0.16061,-0.0417 -2.8939,-0.422 -2.99401,-0.4166 -0.14216,0.008 2.72601,0.43653 2.9184,0.43636 0.0832,-5e-5 0.11719,-0.009 0.0756,-0.0198 z m 62.12569,-0.26508 c -0.0151,-0.0244 -0.0788,-0.0553 -0.14158,-0.0685 -0.0628,-0.0133 -0.64717,-0.19914 -1.29863,-0.41302 -2.44059,-0.80129 -6.04877,-1.90032 -9.83812,-2.99663 -3.05602,-0.88414 -4.83303,-1.37954 -4.8582,-1.35438 -0.0122,0.0122 0.1651,0.0729 0.39402,0.13482 3.53043,0.95535 11.07157,3.20597 14.35271,4.28351 1.56549,0.51412 1.42582,0.47249 1.3898,0.41422 z m -16.21255,-4.86547 c -0.0372,-0.0367 -3.2279,-0.89703 -3.24894,-0.87599 -0.0211,0.0211 3.07242,0.88385 3.19853,0.89207 0.0393,0.003 0.062,-0.005 0.0504,-0.0161 z m -3.32734,-0.90825 c -0.0604,-0.0603 -7.82473,-2.04917 -7.96851,-2.04111 -0.0362,0.002 1.17026,0.31842 2.6811,0.70307 1.51083,0.38465 3.29133,0.84587 3.95665,1.02493 1.14507,0.30817 1.38143,0.36378 1.33076,0.31311 z m -8.07324,-2.07525 c -0.0168,-0.0168 -0.0602,-0.0185 -0.0966,-0.004 -0.0402,0.0161 -0.0283,0.028 0.0304,0.0305 0.0531,0.002 0.0829,-0.01 0.0662,-0.0265 z m -1.44805,-0.35138 c -0.7069,-0.17617 -1.3193,-0.31871 -1.36088,-0.31677 -0.105,0.005 2.42086,0.63713 2.54536,0.6371 0.0554,-10e-6 -0.47757,-0.14416 -1.18448,-0.32033 z m -2.21774,-0.52932 c -0.42969,-0.10691 -0.81527,-0.19267 -0.85685,-0.19057 -0.10444,0.005 1.41223,0.38513 1.5373,0.38503 0.0554,-4e-5 -0.25076,-0.0875 -0.68045,-0.19446 z m -1.18447,-0.27686 c -0.13861,-0.0386 -0.28604,-0.0683 -0.32762,-0.0662 -0.10406,0.005 0.35355,0.13528 0.47883,0.13583 0.0554,2.5e-4 -0.0126,-0.0311 -0.15121,-0.0697 z m -0.98287,-0.22746 c -0.3188,-0.0793 -0.61366,-0.14237 -0.65524,-0.1401 -0.10362,0.006 1.00816,0.28445 1.13407,0.28438 0.0555,-3e-5 -0.16003,-0.065 -0.47883,-0.14428 z m -0.76024,-0.16647 c -0.0381,-0.0352 -1.4646,-0.34308 -1.48683,-0.32085 -0.012,0.012 0.27893,0.0909 0.64643,0.17535 0.63155,0.14519 0.88803,0.18959 0.8404,0.1455 z m -2.01193,-0.46198 c -0.42664,-0.10475 -1.00134,-0.20734 -0.80646,-0.14396 0.19011,0.0618 1.09427,0.26142 1.18448,0.26147 0.0554,3e-5 -0.11467,-0.0529 -0.37802,-0.11751 z m -0.91146,-0.19263 c -0.0388,-0.0348 -1.51359,-0.34512 -1.53555,-0.32316 -0.0119,0.0119 0.28993,0.0916 0.67081,0.17701 0.64894,0.14553 0.91409,0.19034 0.86474,0.14615 z m -1.83552,-0.41077 c -0.13861,-0.0356 -0.29738,-0.0643 -0.35282,-0.0636 -0.0555,6.3e-4 0.0126,0.0303 0.15121,0.0659 0.13861,0.0356 0.29738,0.0643 0.35282,0.0636 0.0554,-6.3e-4 -0.0126,-0.0303 -0.15121,-0.0659 z m -0.48303,-0.0937 c -0.0378,-0.0346 -1.56462,-0.34406 -1.58703,-0.32165 -0.012,0.012 0.30143,0.0914 0.6965,0.17649 0.68079,0.14659 0.93782,0.18849 0.89053,0.14516 z m -1.66331,-0.35372 c -0.0362,-0.0347 -1.61656,-0.34162 -1.63972,-0.31846 -0.0121,0.0121 0.31315,0.0908 0.72276,0.175 0.72017,0.14797 0.96095,0.18564 0.91696,0.14346 z m -1.74731,-0.36606 c -0.0347,-0.014 -0.0914,-0.014 -0.12601,0 -0.0347,0.014 -0.006,0.0254 0.063,0.0254 0.0693,0 0.0976,-0.0114 0.063,-0.0254 z m -0.21841,-0.037 c -0.0321,-0.0304 -1.31117,-0.28322 -1.40254,-0.27717 -0.0441,0.003 0.2147,0.0686 0.57508,0.14591 0.63056,0.1353 0.87206,0.17362 0.82746,0.13126 z m -1.5457,-0.31585 c -0.0347,-0.014 -0.0914,-0.014 -0.12601,0 -0.0346,0.014 -0.006,0.0254 0.063,0.0254 0.0693,0 0.0977,-0.0114 0.063,-0.0254 z m -0.25202,-0.0504 c -0.0347,-0.014 -0.0914,-0.014 -0.12601,0 -0.0346,0.014 -0.006,0.0254 0.063,0.0254 0.0693,0 0.0976,-0.0114 0.063,-0.0254 z m -0.86945,-0.17092 c -0.37425,-0.0791 -0.72581,-0.14244 -0.78125,-0.14083 -0.13777,0.004 1.17784,0.28407 1.33568,0.28435 0.0693,1.3e-4 -0.18019,-0.0645 -0.55443,-0.14352 z m -1.31049,-0.25215 c -0.23563,-0.0513 -0.47379,-0.0919 -0.52923,-0.0902 -0.13698,0.004 0.67306,0.18277 0.83165,0.18321 0.0693,2e-4 -0.0668,-0.0417 -0.30242,-0.093 z m -0.65944,-0.11767 c -0.0366,-0.0343 -2.87113,-0.54236 -2.92532,-0.5243 -0.0285,0.01 0.56794,0.13277 1.32544,0.27393 1.29669,0.24164 1.64944,0.29684 1.59988,0.25037 z m -3.32241,-0.61401 c -0.18019,-0.037 -0.37299,-0.0654 -0.42843,-0.0631 -0.136,0.006 0.47049,0.13154 0.63004,0.13089 0.0693,-2.8e-4 -0.0214,-0.0308 -0.20161,-0.0678 z m -0.85686,-0.14968 c -0.33803,-0.0678 -0.89009,-0.137 -0.75605,-0.0948 0.14632,0.0461 0.83313,0.16159 0.95767,0.16104 0.0693,-3.1e-4 -0.0214,-0.0301 -0.20162,-0.0663 z m -0.88205,-0.15164 c -0.0911,-0.0358 -2.48536,-0.426 -2.57944,-0.42038 -0.11728,0.007 2.33501,0.43664 2.50383,0.43867 0.0693,8.3e-4 0.10333,-0.007 0.0756,-0.0183 z m -2.73342,-0.45893 c -0.0341,-0.0138 -0.10217,-0.0146 -0.15121,-0.002 -0.049,0.0128 -0.0211,0.0241 0.062,0.0251 0.0832,0.001 0.12329,-0.009 0.0892,-0.0232 z m -0.5932,-0.0955 c -0.19405,-0.0368 -0.40952,-0.0655 -0.47883,-0.0638 -0.16844,0.004 0.4873,0.12951 0.68045,0.13015 0.0832,2.8e-4 -0.008,-0.0296 -0.20162,-0.0663 z m -0.95766,-0.15121 c -0.19405,-0.0368 -0.40952,-0.0655 -0.47883,-0.0638 -0.16844,0.004 0.48729,0.12951 0.68045,0.13015 0.0832,2.8e-4 -0.008,-0.0296 -0.20162,-0.0663 z m -0.98286,-0.15184 c -0.20791,-0.0363 -0.43473,-0.0644 -0.50403,-0.0624 -0.16835,0.005 0.53757,0.1294 0.73084,0.12892 0.0832,-2.1e-4 -0.0189,-0.0301 -0.22681,-0.0665 z m -1.00807,-0.15121 c -0.20791,-0.0363 -0.43472,-0.0644 -0.50403,-0.0625 -0.16835,0.005 0.53757,0.1294 0.73085,0.12892 0.0832,-2.1e-4 -0.0189,-0.0301 -0.22682,-0.0665 z m -0.71824,-0.10716 c -0.0485,-0.0127 -0.1279,-0.0127 -0.17641,0 -0.0485,0.0127 -0.009,0.023 0.0882,0.023 0.097,0 0.13672,-0.0104 0.0882,-0.023 z m -0.64264,-0.0945 c -0.20792,-0.0363 -0.44607,-0.0646 -0.52924,-0.0627 -0.18552,0.004 0.54479,0.12839 0.75605,0.12864 0.0832,1.1e-4 -0.0189,-0.0296 -0.22681,-0.0659 z m -0.76865,-0.10717 c -0.0485,-0.0127 -0.1279,-0.0127 -0.17641,0 -0.0485,0.0127 -0.009,0.0231 0.0882,0.0231 0.097,0 0.13672,-0.0104 0.0882,-0.0231 z m -0.35282,-0.0504 c -0.0485,-0.0127 -0.1279,-0.0127 -0.17642,0 -0.0485,0.0127 -0.009,0.0231 0.0882,0.0231 0.097,0 0.13672,-0.0104 0.0882,-0.0231 z m -0.35283,-0.0504 c -0.0485,-0.0127 -0.12789,-0.0127 -0.17641,0 -0.0485,0.0127 -0.009,0.0231 0.0882,0.0231 0.097,0 0.13672,-0.0104 0.0882,-0.0231 z m -0.35282,-0.0504 c -0.0485,-0.0127 -0.1279,-0.0127 -0.17641,0 -0.0485,0.0127 -0.009,0.0231 0.0882,0.0231 0.097,0 0.13671,-0.0104 0.0882,-0.0231 z m -0.49143,-0.0686 c -0.12475,-0.0222 -0.29486,-0.0388 -0.37802,-0.0369 -0.1273,0.003 -0.11932,0.009 0.0504,0.0395 0.11089,0.0198 0.281,0.0365 0.37802,0.0369 0.15828,7.6e-4 0.15311,-0.003 -0.0504,-0.0395 z m -0.75605,-0.10081 c -0.12475,-0.0222 -0.29486,-0.0388 -0.37802,-0.0369 -0.12729,0.003 -0.11932,0.009 0.0504,0.0395 0.11089,0.0199 0.281,0.0365 0.37802,0.0369 0.15829,7.5e-4 0.15311,-0.003 -0.0504,-0.0395 z m -0.61685,-0.0825 c -0.0482,-0.0126 -0.13892,-0.0131 -0.20161,-0.001 -0.0627,0.0121 -0.0233,0.0224 0.0876,0.0229 0.11089,5.6e-4 0.16219,-0.009 0.114,-0.0219 z m -0.74404,-0.0942 c -0.23563,-0.0358 -0.49647,-0.0637 -0.57963,-0.0619 -0.20076,0.004 0.60476,0.12772 0.83165,0.12737 0.097,-1.5e-4 -0.0164,-0.0296 -0.25202,-0.0655 z"
       id="path6141"
       inkscape:connector-curvature="0"
       transform="scale(0.26458333)" />
    <path
       style="opacity:1;fill:#000000;stroke-width:0.01782023"
       d="m 635.49855,222.39043 c -0.009,-0.009 -2.16066,-0.44412 -3.34872,-0.67735 -3.4617,-0.67958 -7.57236,-1.41697 -10.73669,-1.926 -2.08628,-0.33561 -2.74046,-0.43427 -2.9361,-0.44282 -0.101,-0.004 -0.1851,-0.0169 -0.20052,-0.0296 -0.0157,-0.013 -0.0484,-0.0177 -0.08,-0.0114 -0.0301,0.006 -0.0534,0.003 -0.0534,-0.007 0,-0.01 -0.0501,-0.0182 -0.11138,-0.0191 -0.0701,-0.001 -0.0957,-0.006 -0.0691,-0.0136 0.0511,-0.0143 -1.13554,-0.19153 -3.71325,-0.55452 -1.45609,-0.20505 -1.51154,-0.21511 -1.47864,-0.26833 0.0107,-0.0173 0.084,-0.0203 0.31859,-0.013 0.16757,0.005 0.29265,0.007 0.27795,0.003 -0.0426,-0.0105 -1.78568,-0.24347 -2.91361,-0.38939 -6.01475,-0.77811 -12.14984,-1.40986 -18.16773,-1.87079 -0.70078,-0.0537 -1.35233,-0.10303 -1.44789,-0.10968 l -0.17375,-0.0121 v -6.13663 -6.13663 h 12.74901 12.749 l 1.05722,0.15226 c 5.93051,0.85406 11.79515,1.84422 17.63449,2.97733 l 0.71727,0.13919 v 0.1139 c 0,0.093 -0.005,0.11206 -0.0263,0.10383 -0.0389,-0.0149 -0.58161,-0.12702 -0.91542,-0.18908 -0.27095,-0.0504 -0.41339,-0.0668 -0.39168,-0.045 0.005,0.005 0.28901,0.065 0.63113,0.13332 0.34212,0.0683 0.64008,0.12853 0.66213,0.1338 l 0.0401,0.01 v 7.45054 7.45054 l -0.0535,-0.008 c -0.0294,-0.004 -0.0535,-0.002 -0.0535,0.005 0,0.007 0.0241,0.0186 0.0535,0.0251 0.0496,0.0109 0.0535,0.0175 0.0535,0.0905 0,0.0645 -0.006,0.0788 -0.0327,0.0788 -0.018,0 -0.036,-0.003 -0.0401,-0.007 z m -0.1589,-0.22436 c -0.0357,-0.0231 -0.14792,-0.0231 -0.13365,0 0.006,0.01 0.0446,0.0177 0.0857,0.0175 0.0548,-2e-4 0.0676,-0.005 0.048,-0.0175 z m -0.25839,-0.0535 c -0.0498,-0.0214 -0.13365,-0.0214 -0.13365,0 0,0.01 0.0381,0.0173 0.0846,0.0166 0.0637,-9.4e-4 0.0758,-0.005 0.049,-0.0166 z m -0.25839,-0.0535 c -0.0644,-0.0206 -0.12475,-0.0206 -0.12475,0 0,0.01 0.0381,0.017 0.0847,0.0161 0.069,-0.001 0.0764,-0.004 0.0401,-0.0161 z m -0.2584,-0.055 c -0.0805,-0.0182 -0.11583,-0.0181 -0.11583,2.5e-4 0,0.0207 0.0657,0.0314 0.12474,0.0203 0.0436,-0.008 0.0435,-0.009 -0.009,-0.0205 z m -0.23289,-0.0321 c 0.005,-0.009 -0.0162,-0.0198 -0.048,-0.0246 -0.064,-0.01 -0.0904,-0.001 -0.0748,0.0238 0.0131,0.0211 0.10978,0.0217 0.12275,7.7e-4 z m -0.24825,-0.0555 c -0.006,-0.01 -0.0386,-0.0178 -0.0723,-0.0178 -0.0337,0 -0.0613,0.008 -0.0613,0.0178 0,0.01 0.0326,0.0178 0.0723,0.0178 0.0437,0 0.068,-0.007 0.0613,-0.0178 z m -0.2584,-0.0535 c -0.0357,-0.0231 -0.14792,-0.0231 -0.13365,0 0.006,0.01 0.0446,0.0177 0.0857,0.0175 0.0548,-2e-4 0.0676,-0.005 0.048,-0.0175 z m -0.25839,-0.0535 c -0.0498,-0.0214 -0.13365,-0.0214 -0.13365,0 0,0.01 0.0381,0.0173 0.0846,0.0166 0.0637,-9.5e-4 0.0758,-0.005 0.049,-0.0166 z m -0.30294,-0.0543 c -0.0308,-0.0141 -1.15322,-0.2363 -1.30088,-0.25757 -0.11154,-0.0161 0.11359,0.0466 0.39204,0.1091 0.57576,0.12927 1.02895,0.2033 0.90884,0.14847 z m -1.5391,-0.30546 c -0.0539,-0.012 -0.0838,-0.0114 -0.0971,0.002 -0.0138,0.0138 0.008,0.0187 0.0778,0.0174 l 0.0971,-0.002 z m -0.23552,-0.0397 c -0.011,-0.011 -0.57433,-0.11749 -0.61453,-0.11617 -0.11841,0.004 0.38041,0.11978 0.52545,0.12208 0.0531,8.4e-4 0.0932,-0.002 0.0891,-0.006 z m -0.81823,-0.14947 c 0,-0.008 -0.1263,-0.0372 -0.28067,-0.0652 -0.15436,-0.028 -0.29595,-0.0549 -0.31464,-0.0597 -0.0208,-0.005 -0.0295,-0.002 -0.0224,0.01 0.0127,0.0205 0.18154,0.0651 0.38766,0.10239 0.15664,0.0283 0.23008,0.0324 0.23008,0.0128 z m -0.8056,-0.15566 c -0.015,-0.015 -0.58574,-0.1177 -0.60857,-0.10946 -0.0465,0.0168 0.40011,0.11597 0.53059,0.11784 0.0482,6.9e-4 0.0833,-0.003 0.078,-0.008 z m -0.74624,-0.14023 c -0.008,-0.008 -0.4036,-0.0818 -0.43999,-0.0818 -0.0584,0 0.004,0.0324 0.0979,0.0506 0.0566,0.011 0.11903,0.0232 0.13863,0.0272 0.0487,0.01 0.21265,0.0131 0.20345,0.004 z m -0.72024,-0.13508 c -0.27094,-0.0533 -0.32305,-0.0597 -0.30156,-0.0372 0.0286,0.03 0.23304,0.0699 0.35502,0.0692 l 0.10692,-5.4e-4 -0.16038,-0.0315 z m -0.45441,-0.0715 c 0,-0.01 -0.006,-0.0178 -0.0134,-0.0178 -0.007,0 -0.14568,-0.0239 -0.3074,-0.0532 -0.3161,-0.0572 -0.38573,-0.0646 -0.3365,-0.0358 0.0294,0.0172 0.43699,0.10037 0.55034,0.11235 0.0343,0.004 0.0724,0.008 0.0847,0.009 0.0122,0.002 0.0223,-0.005 0.0223,-0.015 z m -0.793,-0.1521 c -0.0349,-0.0131 -1.55162,-0.27557 -1.58631,-0.27446 -0.14773,0.005 0.5129,0.13824 1.34573,0.27199 0.0573,0.009 0.26407,0.0113 0.24058,0.002 z m -1.70184,-0.28919 c 0,-0.014 -1.29944,-0.23829 -1.36324,-0.23529 -0.0331,0.002 -0.0328,0.003 0.004,0.0176 0.1022,0.0411 1.03585,0.2017 1.32807,0.22843 0.0172,0.002 0.0312,-0.003 0.0312,-0.0108 z m -1.52363,-0.27152 c -0.0794,-0.0202 -0.15147,-0.0202 -0.15147,0 0,0.0101 0.0446,0.0169 0.10247,0.0157 0.0843,-0.002 0.093,-0.005 0.049,-0.0157 z m -0.28512,-0.0453 c -0.0194,-0.007 -0.43998,-0.0794 -0.46441,-0.0794 -0.0483,0 0.0413,0.0436 0.12892,0.0628 0.0916,0.02 0.38145,0.0344 0.33549,0.0166 z m -0.66826,-0.0954 c 0,-0.0191 -0.11988,-0.0412 -0.92665,-0.17088 -0.33814,-0.0544 -0.62999,-0.10228 -0.64855,-0.10647 -0.019,-0.004 -0.0268,-9.9e-4 -0.0178,0.008 0.0318,0.0304 1.05383,0.2152 1.51283,0.27359 0.0294,0.004 0.0595,0.008 0.0668,0.009 0.007,0.001 0.0134,-0.005 0.0134,-0.0133 z m -1.8533,-0.3048 c 0,-0.01 -0.003,-0.0178 -0.006,-0.0178 -0.003,0 -0.23283,-0.0363 -0.51033,-0.0807 -0.46859,-0.075 -0.61875,-0.0902 -0.45242,-0.0459 0.14437,0.0384 0.61242,0.11777 0.88836,0.15058 0.0294,0.004 0.0595,0.008 0.0668,0.009 0.007,0.001 0.0134,-0.005 0.0134,-0.0151 z m -1.21178,-0.20677 c -0.0748,-0.0185 -0.48945,-0.076 -0.49661,-0.0688 -0.0165,0.0165 0.0131,0.0279 0.13349,0.0519 0.10365,0.0206 0.44155,0.0364 0.36312,0.017 z m -0.65935,-0.0928 c 0,-0.0175 -0.44805,-0.0829 -0.48305,-0.0705 -0.0368,0.0131 0.10882,0.0491 0.26562,0.0657 0.19435,0.0206 0.21743,0.0211 0.21743,0.005 z m -0.62591,-0.10062 c -0.009,-0.009 -0.45876,-0.081 -0.50553,-0.081 -0.0159,0 -0.0245,0.007 -0.019,0.0162 0.006,0.009 0.0681,0.0257 0.13916,0.0372 0.071,0.0116 0.14117,0.0234 0.15587,0.0263 0.0452,0.009 0.23812,0.01 0.22946,0.001 z m -0.71302,-0.10713 c -0.012,-0.012 -0.70711,-0.1167 -0.76219,-0.11477 -0.0724,0.003 0.11936,0.0496 0.35335,0.0868 0.19322,0.0307 0.42758,0.0467 0.40884,0.028 z m -0.99552,-0.15203 c -0.0147,-0.01 -0.0668,-0.0173 -0.11583,-0.0173 -0.064,0 -0.0816,0.005 -0.0624,0.0173 0.0147,0.01 0.0668,0.0173 0.11583,0.0173 0.064,0 0.0816,-0.005 0.0624,-0.0173 z m -0.37422,-0.0555 c -0.0984,-0.0255 -2.81909,-0.40993 -2.85952,-0.40408 -0.0665,0.01 1.49356,0.2523 2.316,0.36027 0.18622,0.0245 0.35863,0.0477 0.38314,0.0516 0.0245,0.004 0.0846,0.007 0.13365,0.008 0.0869,5.7e-4 0.0875,1.8e-4 0.0267,-0.0156 z m -2.90953,-0.41862 c -0.006,-0.006 -0.0213,-0.007 -0.0341,-10e-4 -0.0142,0.006 -0.01,0.01 0.0108,0.0108 0.0188,7.7e-4 0.0293,-0.003 0.0234,-0.009 z m 20.47137,-11.48328 c -0.006,-0.01 -0.0446,-0.017 -0.0857,-0.0161 -0.0638,0.002 -0.0682,0.004 -0.0301,0.0161 0.0649,0.0208 0.12867,0.0208 0.11584,0 z m -0.24949,-0.0535 c -0.006,-0.01 -0.0406,-0.0177 -0.0768,-0.0175 -0.049,2e-4 -0.059,0.005 -0.0391,0.0175 0.0356,0.023 0.13004,0.023 0.11583,0 z m -0.32967,-0.0431 c 0,-0.0222 -1.04481,-0.24431 -1.26524,-0.26892 -0.20052,-0.0224 -0.038,0.0236 0.3475,0.0983 0.21562,0.0418 0.5003,0.0981 0.63261,0.12524 0.25607,0.0524 0.28513,0.0571 0.28513,0.0454 z m -1.55036,-0.30359 c 0,-0.0137 -0.12126,-0.0437 -0.4366,-0.10806 -0.27668,-0.0565 -0.4397,-0.0771 -0.4151,-0.0525 0.01,0.01 0.76402,0.16295 0.82051,0.16658 0.0172,0.001 0.0312,-0.002 0.0312,-0.006 z m -0.96229,-0.18652 c 0,-0.0211 -0.13334,-0.051 -0.71281,-0.15976 -1.07103,-0.20106 -2.13573,-0.38171 -2.19771,-0.37288 -0.0213,0.003 0.41435,0.088 0.96811,0.18879 0.55376,0.10081 1.21133,0.22242 1.46126,0.27026 0.53179,0.10178 0.48115,0.094 0.48115,0.0736 z m -3.12516,-0.57432 c -0.0424,-0.0246 -0.39799,-0.0972 -0.5578,-0.11382 -0.2156,-0.0224 -0.10264,0.015 0.22191,0.0735 0.36128,0.0652 0.38323,0.0678 0.33589,0.0403 z m -0.92004,-0.16882 c -0.15141,-0.0479 -0.89966,-0.16441 -0.92073,-0.14334 -0.005,0.005 0.0504,0.018 0.12211,0.03 0.0717,0.012 0.27872,0.0481 0.46004,0.0803 0.35921,0.0638 0.47014,0.0746 0.33858,0.033 z m -1.03798,-0.18635 c -0.0578,-0.0336 -2.55417,-0.43975 -2.57503,-0.41889 -0.0141,0.0142 0.0238,0.0211 1.26965,0.23173 1.1595,0.19606 1.37328,0.22671 1.30538,0.18716 z m -2.70427,-0.44202 c 0,-0.0228 -0.0893,-0.0366 -0.15147,-0.0234 l -0.0535,0.0114 0.0624,0.0115 c 0.0955,0.0177 0.14256,0.0178 0.14256,4.9e-4 z m -0.38402,-0.0538 c -0.0313,-0.0297 -0.5646,-0.12649 -0.69695,-0.12649 -0.112,0 -3.1e-4,0.0286 0.31972,0.0819 0.3938,0.0656 0.40019,0.0664 0.37723,0.0446 z m -1.01993,-0.17185 c -0.1166,-0.0367 -0.49591,-0.0974 -0.5986,-0.0958 -0.0502,7.8e-4 -0.0804,0.006 -0.067,0.0111 0.0379,0.0151 0.62868,0.10813 0.68854,0.10846 0.0478,2.6e-4 0.0454,-0.002 -0.0229,-0.0237 z m -0.90255,-0.13088 c -0.0113,-0.0182 -0.33993,-0.0817 -0.56209,-0.10849 -0.17988,-0.0217 -0.22474,-0.0228 -0.207,-0.005 0.007,0.007 0.17502,0.0385 0.37274,0.0693 0.42289,0.0658 0.40885,0.0643 0.39635,0.044 z m -0.99443,-0.15466 c -0.0215,-0.0215 -0.47634,-0.0961 -0.63734,-0.10457 -0.21604,-0.0113 -0.17279,0.001 0.21385,0.0616 0.31211,0.0488 0.4425,0.062 0.42349,0.043 z m -0.9581,-0.15025 c 0,-0.0102 -0.0476,-0.0169 -0.11138,-0.0157 -0.0887,0.002 -0.10047,0.005 -0.0579,0.0157 0.0796,0.0203 0.16929,0.0203 0.16929,0 z m -0.42769,-0.0521 c -0.0766,-0.0442 -0.78409,-0.14552 -0.78409,-0.11234 0,0.0136 0.66177,0.12134 0.77518,0.12622 0.0285,0.001 0.0303,-0.002 0.009,-0.0139 z m -0.98011,-0.14308 c 0,-0.0246 -0.11439,-0.0424 -0.16329,-0.0253 -0.0373,0.013 -0.0342,0.0157 0.0296,0.0259 0.1114,0.0178 0.13365,0.0177 0.13365,-5.6e-4 z m -0.3564,-0.0543 c 0,-0.0103 -0.0473,-0.0168 -0.11138,-0.0153 -0.10275,0.002 -0.10585,0.004 -0.0401,0.0153 0.10912,0.0195 0.15148,0.0195 0.15148,0 z m -0.3475,-0.0535 c -0.006,-0.01 -0.0607,-0.0169 -0.12134,-0.0157 -0.0881,0.002 -0.0996,0.005 -0.0569,0.0157 0.0812,0.0207 0.19097,0.0207 0.1782,0 z m -0.3564,-0.0535 c -0.006,-0.01 -0.0566,-0.0177 -0.11243,-0.0175 -0.072,1.9e-4 -0.0937,0.005 -0.0747,0.0175 0.036,0.0233 0.20149,0.0233 0.18711,0 z m -0.4366,-0.0656 c -0.13681,-0.0308 -0.46557,-0.0597 -0.49453,-0.0435 -0.0132,0.007 0.10669,0.0296 0.26645,0.0494 0.29608,0.0366 0.40467,0.0338 0.22808,-0.006 z m -0.68061,-0.0778 c -0.0491,-0.0286 -0.38411,-0.0724 -0.51138,-0.0667 -0.1093,0.005 -0.0979,0.008 0.15842,0.0431 0.32518,0.0446 0.3973,0.0495 0.35296,0.0236 z"
       id="path6143"
       inkscape:connector-curvature="0"
       transform="scale(0.26458333)" />
    <path
       style="opacity:1;fill:#000000;stroke-width:0.01782023"
       d=""
       id="path6145"
       inkscape:connector-curvature="0"
       transform="scale(0.26458333)" />
    <path
       style="opacity:1;fill:#000000;stroke-width:0.01782023"
       d=""
       id="path6147"
       inkscape:connector-curvature="0"
       transform="scale(0.26458333)" />
    <path
       style="opacity:1;fill:#000000;stroke-width:0.01782023"
       d=""
       id="path6149"
       inkscape:connector-curvature="0"
       transform="scale(0.26458333)" />
    <path
       style="opacity:1;fill:#000000;stroke-width:0.01782023"
       d=""
       id="path6151"
       inkscape:connector-curvature="0"
       transform="scale(0.26458333)" />
    <path
       style="opacity:1;fill:#000000;stroke-width:0.01782023"
       d=""
       id="path6153"
       inkscape:connector-curvature="0"
       transform="scale(0.26458333)" />
    <rect
       style="opacity:1;fill:#000000;stroke-width:0.26458332"
       id="rect6193"
       width="15.766747"
       height="6.0351186"
       x="-110.93522"
       y="-120.80843"
       transform="rotate(162)" />
    <rect
       style="opacity:1;fill:#000000;stroke-width:0.26458332"
       id="rect6195"
       width="9.4951277"
       height="9.5484715"
       x="180.69299"
       y="20.378426"
       transform="rotate(18)" />
    <rect
       style="opacity:1;fill:#000000;stroke-width:0.26458332"
       id="rect6197"
       width="29.872313"
       height="13.229166"
       x="135.91901"
       y="72.424225" />
    <rect
       style="opacity:1;fill:#000000;stroke-width:0.26458332"
       id="rect6199"
       width="12.562374"
       height="6.0011339"
       x="95.006706"
       y="91.492195"
       transform="rotate(-18)" />
    <rect
       style="opacity:1;fill:#000000;stroke-width:0.26458332"
       id="rect6201"
       width="10.428637"
       height="12.535702"
       x="179.90137"
       y="-4.4266119"
       transform="rotate(18)" />
    <rect
       style="opacity:1;fill:#000000;stroke-width:0.26458332"
       id="rect6203"
       width="45.50193"
       height="15.362904"
       x="127.1707"
       y="48.473034" />
    <text
       xml:space="preserve"
       style="font-style:normal;font-weight:normal;font-size:10.58333302px;line-height:1.25;font-family:sans-serif;letter-spacing:0px;word-spacing:0px;fill:#ffffff;fill-opacity:1;stroke:none;stroke-width:0.26458332;"
       x="121.80869"
       y="63.995968"
       id="text6207"><tspan
         sodipodi:role="line"
         id="tspan6205"
         x="121.80869"
         y="63.995968"
         style="font-style:normal;font-variant:normal;font-weight:normal;font-stretch:normal;font-size:14.11111069px;font-family:'Century Gothic';-inkscape-font-specification:'Century Gothic';fill:#ffffff;stroke-width:0.26458332;">CANSAT</tspan></text>
    <text
       xml:space="preserve"
       style="font-style:normal;font-weight:normal;font-size:10.58335781px;line-height:1.25;font-family:sans-serif;letter-spacing:0px;word-spacing:0px;fill:#ffffff;fill-opacity:1;stroke:none;stroke-width:0.26458395;"
       x="138.43694"
       y="74.777107"
       id="text6211"
       transform="scale(1.0000024,0.99999761)"><tspan
         sodipodi:role="line"
         id="tspan6209"
         x="138.43694"
         y="74.777107"
         style="font-style:normal;font-variant:normal;font-weight:normal;font-stretch:normal;font-size:10.58333302px;font-family:'Century Gothic';-inkscape-font-specification:'Century Gothic';fill:#ffffff;stroke-width:0.26458395;">2019</tspan></text>
    <text
       xml:space="preserve"
       style="font-style:normal;font-weight:normal;font-size:10.58333302px;line-height:1.25;font-family:sans-serif;letter-spacing:0px;word-spacing:0px;fill:#ffffff;fill-opacity:1;stroke:none;stroke-width:0.26458332;"
       x="127.79215"
       y="83.62635"
       id="text6215"><tspan
         sodipodi:role="line"
         id="tspan6213"
         x="127.79215"
         y="83.62635"
         style="font-style:normal;font-variant:normal;font-weight:normal;font-stretch:normal;font-size:8.81944466px;font-family:'Century Gothic';-inkscape-font-specification:'Century Gothic';fill:#ffffff;stroke-width:0.26458332;">GERMANY</tspan></text>
    <text
       xml:space="preserve"
       style="font-style:normal;font-weight:normal;font-size:10.58330345px;line-height:1.25;font-family:sans-serif;letter-spacing:0px;word-spacing:0px;fill:#000000;fill-opacity:1;stroke:none;stroke-width:0.26458257"
       x="99.033936"
       y="130.85493"
       id="text74"
       transform="scale(0.99999722,1.0000028)"><tspan
         sodipodi:role="line"
         id="tspan72"
         x="99.033936"
         y="130.85493"
         style="font-style:normal;font-variant:normal;font-weight:normal;font-stretch:normal;font-family:'Century Gothic';-inkscape-font-specification:'Century Gothic';fill:#ffffff;stroke-width:0.26458257">:mission:</tspan></text>
    <text
       xml:space="preserve"
       style="font-style:normal;font-weight:normal;font-size:10.58333302px;line-height:1.25;font-family:sans-serif;letter-spacing:0px;word-spacing:0px;fill:#000000;fill-opacity:1;stroke:none;stroke-width:0.26458332"
       x="99.112885"
       y="151.21658"
       id="text90"><tspan
         sodipodi:role="line"
         id="tspan88"
         x="99.112885"
         y="151.21658"
         style="font-style:normal;font-variant:normal;font-weight:normal;font-stretch:normal;font-family:'Century Gothic';-inkscape-font-specification:'Century Gothic';fill:#ffffff;stroke-width:0.26458332"><tspan
           style="font-style:normal;font-variant:normal;font-weight:normal;font-stretch:normal;font-size:17.63888931px;font-family:'Century Gothic';-inkscape-font-specification:'Century Gothic';fill:#ffffff"
           id="tspan94">re</tspan><tspan
           style="font-style:normal;font-variant:normal;font-weight:normal;font-stretch:normal;font-size:21.16666603px;font-family:'Century Gothic';-inkscape-font-specification:'Century Gothic';fill:#ffffff"
           id="tspan92">Luna</tspan></tspan></text>
  </g>
</svg>
